<svg width="100%" height="100%" viewBox="0 0 800 800" xmlns="http://www.w3.org/2000/svg">
  <defs>
    <linearGradient id="grad1" x1="0%" y1="0%" x2="100%" y2="100%">
      <stop offset="0%" style="stop-color:#ED3122;stop-opacity:0.95" />
      <stop offset="100%" style="stop-color:#F39D11;stop-opacity:0.9" />
    </linearGradient>
    <linearGradient id="grad2" x1="0%" y1="100%" x2="100%" y2="0%">
      <stop offset="0%" style="stop-color:#F39D11;stop-opacity:0.8" />
      <stop offset="100%" style="stop-color:#ED3122;stop-opacity:0.7" />
    </linearGradient>
    <linearGradient id="grad3" x1="50%" y1="0%" x2="50%" y2="100%">
      <stop offset="0%" style="stop-color:#268168;stop-opacity:0.3" />
      <stop offset="100%" style="stop-color:#268168;stop-opacity:0" />
    </linearGradient>
  </defs>
  
  <!-- Background gradient -->
  <rect width="100%" height="100%" fill="#212121" />
  
  <!-- Abstract shapes representing the DARE logo colors -->
  <circle cx="400" cy="400" r="350" fill="url(#grad3)" />
  
  <!-- Orange/Red circles inspired by Mastercard logo -->
  <circle cx="350" cy="400" r="180" fill="url(#grad1)" opacity="0.7">
    <animate attributeName="r" values="180;190;180" dur="10s" repeatCount="indefinite" />
  </circle>
  <circle cx="450" cy="400" r="180" fill="url(#grad2)" opacity="0.7">
    <animate attributeName="r" values="180;170;180" dur="10s" repeatCount="indefinite" />
  </circle>
  
  <!-- Dots pattern -->
  <g opacity="0.3">
    <rect x="50" y="50" width="700" height="700" fill="none" stroke="#fff" stroke-width="1" stroke-dasharray="3,10" />
    <rect x="100" y="100" width="600" height="600" fill="none" stroke="#fff" stroke-width="1" stroke-dasharray="3,10" />
    <rect x="150" y="150" width="500" height="500" fill="none" stroke="#fff" stroke-width="1" stroke-dasharray="3,10" />
  </g>
  
  <!-- World map abstract silhouette -->
  <path d="M200,500 Q300,450 400,500 T600,450" fill="none" stroke="#fff" stroke-width="3" opacity="0.2" />
  <path d="M250,550 Q350,600 450,550 T650,600" fill="none" stroke="#fff" stroke-width="3" opacity="0.2" />
  <path d="M150,450 Q250,400 350,450 T550,400" fill="none" stroke="#fff" stroke-width="3" opacity="0.2" />
  
  <!-- Abstract lines representing digital connectivity -->
  <g opacity="0.2">
    <line x1="200" y1="200" x2="600" y2="600" stroke="#fff" stroke-width="1" />
    <line x1="600" y1="200" x2="200" y2="600" stroke="#fff" stroke-width="1" />
    <line x1="400" y1="100" x2="400" y2="700" stroke="#fff" stroke-width="1" />
    <line x1="100" y1="400" x2="700" y2="400" stroke="#fff" stroke-width="1" />
  </g>
</svg>