<svg xmlns="http://www.w3.org/2000/svg" viewBox="0 0 800 400">
  <rect width="800" height="400" fill="#f5f5f5"/>
  <g transform="translate(400, 200)">
    <!-- Background elements -->
    <circle cx="-120" cy="-60" r="100" fill="#FF5F00" opacity="0.2"/>
    <circle cx="150" cy="50" r="120" fill="#EB001B" opacity="0.1"/>
    <circle cx="0" cy="80" r="80" fill="#F79E1B" opacity="0.15"/>
    
    <!-- Stylized figures representing youth empowerment -->
    <g transform="translate(-180, 0)">
      <circle cx="0" cy="-50" r="30" fill="#1A1F71"/>
      <rect x="-15" y="-15" width="30" height="100" rx="10" fill="#1A1F71"/>
      <rect x="-45" y="25" width="30" height="10" rx="5" fill="#1A1F71"/>
      <rect x="15" y="25" width="30" height="10" rx="5" fill="#1A1F71"/>
      <rect x="-35" y="65" width="20" height="40" rx="5" fill="#1A1F71"/>
      <rect x="15" y="65" width="20" height="40" rx="5" fill="#1A1F71"/>
    </g>
    
    <g transform="translate(-60, 20)">
      <circle cx="0" cy="-50" r="25" fill="#FF5F00"/>
      <rect x="-12" y="-20" width="24" height="80" rx="8" fill="#FF5F00"/>
      <rect x="-35" y="15" width="24" height="8" rx="4" fill="#FF5F00"/>
      <rect x="12" y="15" width="24" height="8" rx="4" fill="#FF5F00"/>
      <rect x="-28" y="50" width="16" height="32" rx="4" fill="#FF5F00"/>
      <rect x="12" y="50" width="16" height="32" rx="4" fill="#FF5F00"/>
    </g>
    
    <g transform="translate(60, -10)">
      <circle cx="0" cy="-50" r="28" fill="#EB001B"/>
      <rect x="-14" y="-18" width="28" height="90" rx="9" fill="#EB001B"/>
      <rect x="-40" y="20" width="28" height="9" rx="4.5" fill="#EB001B"/>
      <rect x="14" y="20" width="28" height="9" rx="4.5" fill="#EB001B"/>
      <rect x="-32" y="58" width="18" height="36" rx="4.5" fill="#EB001B"/>
      <rect x="14" y="58" width="18" height="36" rx="4.5" fill="#EB001B"/>
    </g>
    
    <!-- Business icon -->
    <g transform="translate(150, -20)">
      <rect x="-40" y="-40" width="80" height="80" rx="5" fill="#1A1F71"/>
      <rect x="-30" y="-30" width="60" height="15" rx="2" fill="white"/>
      <rect x="-30" y="-10" width="25" height="10" rx="2" fill="white"/>
      <rect x="0" y="-10" width="30" height="10" rx="2" fill="white"/>
      <rect x="-30" y="5" width="60" height="10" rx="2" fill="white"/>
      <rect x="-30" y="20" width="20" height="20" rx="2" fill="white"/>
      <rect x="-5" y="20" width="35" height="20" rx="2" fill="white"/>
      
      <!-- Graph element representing business growth -->
      <polyline 
        points="-25,55 -15,45 -5,48 5,35 15,30 25,20"
        stroke="#F79E1B"
        stroke-width="3"
        fill="none"
        stroke-linecap="round"
        stroke-linejoin="round"
      />
    </g>
    
    <!-- Text Label: "DARE" -->
    <text
      x="0"
      y="120"
      font-family="Arial, sans-serif"
      font-weight="bold"
      font-size="48"
      fill="#1A1F71"
      text-anchor="middle"
    >DARE</text>
    
    <!-- Subtitle -->
    <text
      x="0"
      y="150"
      font-family="Arial, sans-serif"
      font-size="20"
      fill="#333333"
      text-anchor="middle"
    >Youth in Work Tracker</text>
  </g>
</svg>